<svg width="122" height="20" viewBox="0 0 122 20" fill="none" xmlns="http://www.w3.org/2000/svg">
<path d="M41.9382 12.2564C41.9382 11.8566 41.9671 11.7699 42.1951 11.5419L45.024 8.91373C45.1091 8.82867 45.138 8.74192 45.138 8.62794V8.4C45.138 8.17205 44.9373 8.00024 44.7382 8.00024H42.338C42.11 8.00024 41.9382 7.82843 41.9382 7.60048V0.399757C41.9382 0.17181 42.11 0 42.338 0H46.1093C46.31 0 46.5091 0.17181 46.5091 0.399757V6.79927C46.5091 7.02722 46.6809 7.19903 46.9088 7.19903H47.1368C47.2507 7.19903 47.3375 7.17011 47.4225 7.08505L50.4794 4.25613C50.7074 4.02819 50.7941 3.99927 51.165 3.99927H54.3358C56.736 3.99927 57.9353 5.19854 57.9353 7.59878V11.8277C57.9353 12.2275 57.9064 12.3414 57.6784 12.5422L49.9078 19.7412C49.6799 19.9691 49.5931 19.998 49.1934 19.998H45.536C43.1358 19.998 41.9365 18.7988 41.9365 16.3985V12.2564H41.9382ZM52.9664 8.00024H46.9105C46.6826 8.00024 46.5108 8.17205 46.5108 8.4V15.599C46.5108 15.827 46.6826 15.9988 46.9105 15.9988H52.9664C53.1671 15.9988 53.3662 15.827 53.3662 15.599V8.4C53.3662 8.17205 53.1654 8.00024 52.9664 8.00024Z" fill="white"/>
<path d="M58.6523 16.3985V12.1696C58.6523 11.7699 58.6813 11.6848 58.9092 11.4552L66.6798 4.25613C66.9077 4.02819 66.9945 3.99927 67.3943 3.99927H71.3374C73.7376 3.99927 74.9369 5.19854 74.9369 7.59878V11.8277C74.9369 12.2275 74.908 12.3125 74.68 12.5422L66.9094 19.7412C66.6815 19.9691 66.5947 19.998 66.195 19.998H62.2519C59.8516 19.998 58.6523 18.7988 58.6523 16.3985ZM63.6229 15.9988H69.9646C70.1926 15.9988 70.3644 15.827 70.3644 15.599V8.39999C70.3644 8.17205 70.1926 8.00024 69.9646 8.00024H63.6229C63.4222 8.00024 63.2232 8.17205 63.2232 8.39999V15.599C63.2232 15.827 63.4222 15.9988 63.6229 15.9988Z" fill="white"/>
<path d="M75.6479 16.3985V12.1696C75.6479 11.7699 75.6769 11.6848 75.9048 11.4552L83.6754 4.25613C83.9034 4.02819 83.9901 3.99927 84.3899 3.99927H88.333C90.7332 3.99927 91.9325 5.19854 91.9325 7.59878V11.8277C91.9325 12.2275 91.9036 12.3125 91.6756 12.5422L83.9051 19.7412C83.6771 19.9691 83.5904 19.998 83.1906 19.998H79.2475C76.8472 19.998 75.6479 18.7988 75.6479 16.3985ZM80.6185 15.9988H86.9602C87.1882 15.9988 87.36 15.827 87.36 15.599V8.39999C87.36 8.17205 87.1882 8.00024 86.9602 8.00024H80.6185C80.4178 8.00024 80.2188 8.17205 80.2188 8.39999V15.599C80.2188 15.827 80.4195 15.9988 80.6185 15.9988Z" fill="white"/>
<path d="M90.2173 19.3415L93.417 16.3986C93.6739 16.1707 93.9307 15.9989 94.4462 15.9989H101.989C102.19 15.9989 102.389 15.8271 102.389 15.5991V11.2852C102.389 10.9994 102.56 10.8565 102.989 10.8565H106.504C106.76 10.8565 106.903 10.9994 106.903 11.2562V12.2565C106.903 12.4572 106.845 12.6001 106.703 12.7413L98.9898 19.8842C98.9047 19.9692 98.818 19.9982 98.704 19.9982H90.4758C89.991 19.9982 89.8481 19.6835 90.219 19.3415H90.2173ZM92.8744 11.7989C92.8744 11.5982 92.9322 11.4553 93.0751 11.3124L100.817 4.11335C100.902 4.02829 100.989 3.99937 101.103 3.99937H108.873V0.685646C108.873 0.457699 109.045 0.285889 109.273 0.285889H112.473C113.243 0.285889 113.444 0.457699 113.444 0.685646V6.79937C113.444 7.05624 113.558 7.19913 113.788 7.19913C113.93 7.19913 114.044 7.17021 114.187 7.02732L117.302 4.11335C117.387 4.02829 117.474 3.99937 117.559 3.99937H121.558C122.016 3.99937 122.13 4.39913 121.844 4.68492L118.53 7.88467C118.445 7.96972 118.358 7.99864 118.244 7.99864H113.845C113.617 7.99864 113.446 8.17045 113.446 8.3984V15.5974C113.446 15.8254 113.617 15.9972 113.845 15.9972H121.558C122.016 15.9972 122.13 16.3969 121.844 16.6827L118.53 19.8825C118.445 19.9675 118.358 19.9965 118.244 19.9965H112.474C110.074 19.9965 108.875 18.7972 108.875 16.3969V11.855C108.875 11.741 108.904 11.6543 108.989 11.5692L111.961 8.74032C112.075 8.62635 112.132 8.56851 112.132 8.36948C112.132 8.14154 111.99 7.99864 111.733 7.99864H109.247C109.019 7.99864 108.848 7.82683 108.848 7.59889V5.19864C108.848 4.99792 108.676 4.79889 108.448 4.79889H108.22C108.106 4.79889 108.021 4.82781 107.934 4.91286L105.163 7.88467C105.078 7.96972 104.991 7.99864 104.877 7.99864H97.8211C97.6221 7.99864 97.4214 8.17045 97.4214 8.3984V12.7124C97.4214 12.9982 97.2496 13.141 96.8209 13.141H93.2775C93.0207 13.141 92.8778 12.9982 92.8778 12.7413V11.7989H92.8744Z" fill="white"/>
<path fill-rule="evenodd" clip-rule="evenodd" d="M8.91257 3.99964L31.6725 3.99963V4.00304C34.0728 4.00304 35.272 5.20231 35.272 7.60255V11.8298C35.272 12.2295 35.2431 12.3163 35.0152 12.5442L27.2429 19.7432C27.0149 19.9712 26.9299 20.0001 26.5301 20.0001L3.77017 20.0001C1.36992 20.0001 0.170654 18.7991 0.170654 16.4006V12.1717C0.170654 11.7719 0.199573 11.6852 0.427519 11.4572L8.19811 4.25651C8.42606 4.02856 8.51281 3.99964 8.91257 3.99964ZM16.5563 14.0465C17.5109 14.0465 18.0762 13.6252 18.0762 12.9213C18.0762 12.4147 17.7829 12.0574 17.0576 11.8707L16.4017 11.7161C16.0711 11.6254 15.9377 11.4814 15.9377 11.2628C15.9377 10.9908 16.1617 10.8148 16.535 10.8148C16.871 10.8148 17.1376 10.9642 17.1963 11.3481H17.9855C17.9269 10.6602 17.4256 10.2602 16.5563 10.2602C15.6338 10.2602 15.1111 10.6815 15.1111 11.3321C15.1111 11.8334 15.4044 12.18 16.0231 12.34L16.6737 12.4893C17.0736 12.596 17.2336 12.7507 17.2336 13.0066C17.2336 13.3106 16.9776 13.4919 16.5883 13.4919C16.1724 13.4919 15.9111 13.3106 15.8524 12.9373H15.0525C15.1165 13.6679 15.6338 14.0465 16.5563 14.0465ZM9.7228 13.9985H8.2936V10.3189H9.7228C10.8907 10.3189 11.408 10.9428 11.408 12.1587C11.408 13.3746 10.8907 13.9985 9.7228 13.9985ZM9.09352 10.9588V13.3586H9.68547C10.3094 13.3586 10.5707 12.9426 10.5707 12.1587C10.5707 11.3695 10.3094 10.9588 9.68547 10.9588H9.09352ZM14.5879 13.9985H12.0601V10.3189H14.5612V10.9535H12.8014V11.8174H14.3052V12.42H12.8014V13.3693H14.5879V13.9985ZM19.4874 13.9985H18.6875V10.3189H19.4874V13.9985ZM21.6954 14.0519C22.3406 14.0519 22.6553 13.7212 22.8099 13.3586H22.9166L22.8259 13.7106V13.9985H23.3859V12.0307H21.7167V12.5373H22.5966C22.5593 13.0706 22.3246 13.4119 21.8394 13.4119C21.2901 13.4119 20.9861 12.9693 20.9861 12.1694C20.9861 11.3481 21.2901 10.9055 21.8287 10.9055C22.234 10.9055 22.4953 11.1668 22.57 11.5934H23.3912C23.3059 10.7722 22.7566 10.2656 21.8287 10.2656C20.7568 10.2656 20.1595 10.9482 20.1595 12.1587C20.1595 13.3693 20.7621 14.0519 21.6954 14.0519ZM24.8099 13.9985H24.09V10.3189H24.8899L26.2871 12.4573L26.4044 12.7933H26.5217L26.4737 12.4307L26.4524 10.3189H27.167V13.9985H26.3724L24.9859 11.8547L24.8632 11.5241H24.7512L24.7939 11.8867L24.8099 13.9985Z" fill="white"/>
</svg>
