<svg width="18" height="16" viewBox="0 0 18 16" fill="none" xmlns="http://www.w3.org/2000/svg">
<path d="M8.40898 14.1096L8.40754 14.1083C6.14265 12.0545 4.34337 10.4181 3.09862 8.8952C1.86487 7.38579 1.28076 6.11048 1.28076 4.79564C1.28076 2.65484 2.94194 1 5.0764 1C6.29127 1 7.47383 1.57073 8.24127 2.46491L9.00011 3.34905L9.75894 2.46491C10.5264 1.57073 11.709 1 12.9238 1C15.0583 1 16.7195 2.65484 16.7195 4.79564C16.7195 6.11048 16.1353 7.38579 14.9016 8.8952C13.6568 10.4181 11.8576 12.0545 9.59267 14.1083L9.59123 14.1096L9.00011 14.6477L8.40898 14.1096Z" stroke="#C0C0CC" stroke-width="2"/>
</svg>
