<svg width="24" height="24" viewBox="0 0 24 24" fill="none" xmlns="http://www.w3.org/2000/svg">
<path d="M22.4078 4H1.00013V9.80334C1.00013 9.80334 0.934979 12.0442 3.70634 12.0442H16.7918C17.3051 12.04 17.8136 12.1434 18.2845 12.3478C19.0151 12.6736 19.8366 13.3368 19.8366 14.6747C19.8366 15.8754 19.2548 16.5572 18.6789 16.9388C18.2021 17.2469 17.6456 17.4086 17.078 17.4042H1.00013V19.0331H18.9279C18.9279 19.0331 23 18.8679 23 14.6829C23 12.5549 21.7574 11.5008 20.6393 10.9843C19.9169 10.6524 19.1307 10.4821 18.3357 10.4851H5.3666C5.15048 10.488 4.93701 10.4372 4.74531 10.3374C4.46841 10.1873 4.16358 9.88944 4.16358 9.30305V5.60674H22.4078V4Z" fill="white"/>
</svg>
