<svg width="24" height="24" viewBox="0 0 24 24" fill="none" xmlns="http://www.w3.org/2000/svg">
<path fill-rule="evenodd" clip-rule="evenodd" d="M9.64962 12.8931C10.8882 12.8931 11.4238 13.8921 11.578 14.2282C11.824 14.7652 12.3644 15.9314 12.6247 17.8819C12.717 18.5817 12.8356 20.2256 12.0799 20.7362C11.84 20.8977 10.6604 21.0471 10.5534 20.986C10.2572 20.8176 9.95622 19.4539 9.51667 18.7393V18.7341C9.4175 18.564 9.35427 18.4644 9.19014 18.3669C9.02125 18.2656 8.75622 18.2846 8.29632 18.2846H5.39614C4.9371 18.2846 4.67164 18.2656 4.50232 18.3669C4.33862 18.4644 4.27539 18.564 4.17579 18.7341V18.7393C3.73667 19.4539 3.43527 20.818 3.13949 20.986C3.03209 21.0471 1.85245 20.8977 1.61253 20.7362C0.856851 20.2256 0.975941 18.5817 1.06775 17.8823C1.32845 15.9314 1.8689 14.7652 2.11488 14.2282C2.26861 13.8921 2.8043 12.8931 4.04328 12.8931C4.53826 12.8931 4.97738 13.1689 5.4165 13.4548C5.4165 13.4548 6.04053 13.4115 6.67626 13.4045L6.84948 13.4032C7.5402 13.4032 8.27596 13.4552 8.27596 13.4552C8.71508 13.1694 9.1542 12.8931 9.64962 12.8931ZM9.47856 15.7469C8.85929 15.7469 8.55269 16.2064 8.36907 16.4814C8.31147 16.568 8.21447 16.7135 8.15254 16.7343C8.10751 16.7135 8.0105 16.5684 7.95334 16.4818C7.76972 16.2068 7.46312 15.7469 6.84471 15.7469C6.22544 15.7469 5.91927 16.2068 5.73609 16.4818C5.67849 16.5684 5.58192 16.7131 5.52 16.7343C5.47539 16.7135 5.37882 16.5684 5.32122 16.4818C5.13804 16.2068 4.83187 15.7469 4.2126 15.7469C3.59376 15.7469 3.28759 16.2068 3.10398 16.4818C3.04638 16.5684 2.94981 16.7131 2.90694 16.7334C2.90694 16.7334 2.90391 16.7343 2.89698 16.7343C2.75341 16.7343 2.61572 16.7913 2.51421 16.8928C2.41269 16.9944 2.35566 17.132 2.35566 17.2756C2.35566 17.4192 2.41269 17.5569 2.51421 17.6584C2.61572 17.7599 2.75341 17.8169 2.89698 17.8169C3.51538 17.8169 3.82198 17.357 4.0056 17.082C4.06276 16.9954 4.15933 16.8504 4.22126 16.8296C4.26587 16.8504 4.36287 16.9954 4.42047 17.082C4.60365 17.357 4.91025 17.8169 5.52909 17.8169C6.14749 17.8169 6.4541 17.357 6.63771 17.082C6.69488 16.9954 6.79145 16.8508 6.85338 16.8296C6.89755 16.8504 6.99455 16.9954 7.05258 17.082C7.23533 17.357 7.54193 17.8169 8.1612 17.8169C8.78047 17.8169 9.08664 17.357 9.27026 17.0825C9.32786 16.9959 9.42486 16.8504 9.48765 16.8296C9.53226 16.8504 9.62883 16.9959 9.68686 17.0825C9.87004 17.357 10.1766 17.8169 10.7959 17.8169C11.0947 17.8169 11.3329 17.5744 11.3329 17.2756C11.3329 16.9768 11.0861 16.7343 10.7873 16.7343C10.7422 16.7135 10.6452 16.568 10.588 16.4814C10.404 16.2064 10.0974 15.7469 9.47856 15.7469ZM9.34778 13.9887C8.89523 13.9887 8.65922 14.2373 8.48643 14.4187C8.33573 14.5772 8.26211 14.647 8.09581 14.647C7.92909 14.647 7.85547 14.5777 7.7052 14.4187C7.53284 14.2373 7.29639 13.9887 6.84428 13.9887C6.3926 13.9887 6.15659 14.2373 5.9838 14.4187C5.83396 14.5772 5.76034 14.647 5.59405 14.647C5.42776 14.647 5.35457 14.5777 5.2043 14.4187C5.03194 14.2373 4.79549 13.9887 4.34338 13.9887C3.89127 13.9887 3.65526 14.2373 3.48247 14.4187C3.33263 14.5772 3.25901 14.647 3.09315 14.647H2.89698C2.81084 14.647 2.72823 14.6812 2.66731 14.7421C2.6064 14.803 2.57219 14.8856 2.57219 14.9718C2.57219 15.0579 2.6064 15.1405 2.66731 15.2014C2.72823 15.2623 2.81084 15.2965 2.89698 15.2965H3.09315C3.54483 15.2965 3.78171 15.0475 3.95363 14.8665C4.1039 14.708 4.17709 14.6383 4.34338 14.6383C4.50968 14.6383 4.5833 14.708 4.73357 14.8665C4.90592 15.0475 5.14194 15.2965 5.59405 15.2965C6.04616 15.2965 6.28261 15.0475 6.45496 14.8665C6.60523 14.708 6.67842 14.6383 6.84471 14.6383C7.01101 14.6383 7.08419 14.708 7.23446 14.8665C7.40769 15.0475 7.64327 15.2965 8.09625 15.2965C8.54792 15.2965 8.7848 15.0475 8.95673 14.8665C9.10743 14.708 9.18105 14.6383 9.34778 14.6383C9.5145 14.6383 9.58769 14.708 9.73839 14.8665C9.91162 15.0475 10.1472 15.2965 10.6002 15.2965H10.7959C10.8821 15.2965 10.9647 15.2623 11.0256 15.2014C11.0865 15.1405 11.1207 15.0579 11.1207 14.9718C11.1207 14.8856 11.0865 14.803 11.0256 14.7421C10.9647 14.6812 10.8821 14.647 10.7959 14.647H10.5997C10.433 14.647 10.3594 14.5777 10.2091 14.4187C10.0368 14.2373 9.79989 13.9887 9.34778 13.9887ZM18.2882 5.55799C19.5454 5.55799 20.0897 6.5722 20.2456 6.91302C20.4951 7.45867 21.0433 8.64178 21.3079 10.6217C21.401 11.3315 21.5223 12.9992 20.7549 13.5184C20.5115 13.683 19.3141 13.8341 19.2054 13.7722C18.9049 13.6007 18.5991 12.2175 18.1535 11.4913V11.4865C18.0526 11.3133 17.989 11.2128 17.8218 11.1132C17.6499 11.011 17.3814 11.0305 16.915 11.0305H13.8671C13.464 11.0283 13.2232 11.0188 13.0643 11.1128C12.8975 11.2124 12.8334 11.3137 12.7325 11.4865V11.4909C12.5203 11.8373 12.3402 12.331 12.1769 12.7736C11.5351 12.0231 10.6439 11.5939 9.64962 11.5939C9.60198 11.5939 9.55694 11.5983 9.51104 11.6004C9.51341 11.2731 9.53597 10.9462 9.5786 10.6217C9.84276 8.64178 10.391 7.45867 10.6409 6.91302C10.7972 6.5722 11.3411 5.55755 12.5983 5.55755C13.1006 5.55755 13.5467 5.83774 13.9927 6.12789C13.9927 6.12789 14.7389 6.07592 15.4404 6.07592C16.1403 6.07592 16.8942 6.12789 16.8942 6.12789C17.3403 5.83774 17.7859 5.55799 18.2882 5.55799ZM18.9278 6.10624H18.0535C17.9969 6.10599 17.9408 6.11728 17.8887 6.13943C17.8366 6.16157 17.7896 6.1941 17.7505 6.23504C17.7114 6.27597 17.681 6.32444 17.6613 6.3775C17.6415 6.43056 17.6328 6.48708 17.6356 6.54362L17.6824 7.57083C17.6928 7.80685 17.8933 7.99912 18.1297 7.99912H18.7754C19.0093 7.99912 19.2163 7.80944 19.2375 7.57689L19.331 6.54752C19.3367 6.49126 19.3305 6.43444 19.3128 6.38073C19.2951 6.32702 19.2664 6.27762 19.2284 6.23572C19.1902 6.19418 19.1437 6.16115 19.0919 6.13877C19.0402 6.11638 18.9842 6.10515 18.9278 6.1058V6.10624ZM12.8326 6.10624H11.9587C11.9023 6.10561 11.8464 6.11685 11.7946 6.13924C11.7428 6.16162 11.6963 6.19464 11.6581 6.23615C11.6202 6.278 11.5915 6.32733 11.5738 6.38096C11.5561 6.43459 11.5499 6.49133 11.5555 6.54752L11.649 7.57689C11.6707 7.80944 11.8773 7.99912 12.1111 7.99912H12.7568C12.9928 7.99912 13.1933 7.80685 13.2041 7.5704L13.2509 6.54406C13.2539 6.48741 13.2453 6.43075 13.2256 6.37756C13.2059 6.32437 13.1755 6.27577 13.1363 6.23476C13.0972 6.19374 13.05 6.16118 12.9978 6.13908C12.9455 6.11698 12.8893 6.1058 12.8326 6.10624ZM11.6404 3.51223L12.1847 4.28957C11.0545 4.42814 10.0926 5.13229 9.53226 6.23962L8.97751 5.44712C9.60848 4.43637 10.5491 3.76427 11.6404 3.51223ZM19.2305 3.5079C20.3257 3.75604 21.2698 4.42425 21.9016 5.43153L21.3469 6.22359C20.7861 5.12017 19.8199 4.42078 18.6845 4.28783L19.2305 3.5079ZM10.5859 2.0052L11.1043 2.74659C10.0415 3.06921 9.12086 3.73959 8.44442 4.68625L7.92259 3.94096C8.6315 3.03847 9.54395 2.37676 10.5859 2.0052ZM20.2863 2C21.3304 2.36766 22.245 3.02634 22.9553 3.92623L22.4339 4.67152C21.7566 3.72746 20.8329 3.06012 19.7675 2.74053L20.2863 2Z" fill="white"/>
</svg>
