<svg width="44" height="45" viewBox="0 0 44 45" fill="none" xmlns="http://www.w3.org/2000/svg">
<path fill-rule="evenodd" clip-rule="evenodd" d="M40.8027 22.5741C40.8027 33.0286 32.3832 41.5019 21.9951 41.5019C11.607 41.5019 3.1875 33.0286 3.1875 22.5741C3.1875 12.1197 11.607 3.64636 21.9951 3.64636C32.3832 3.64636 40.8027 12.1197 40.8027 22.5741Z" fill="white"/>
<path d="M21.9951 43.0019C33.2206 43.0019 42.3027 33.848 42.3027 22.5741C42.3027 11.3003 33.2206 2.14636 21.9951 2.14636C10.7696 2.14636 1.6875 11.3003 1.6875 22.5741C1.6875 33.848 10.7696 43.0019 21.9951 43.0019Z" stroke="white" stroke-opacity="0.3" stroke-width="3" stroke-linecap="round" stroke-linejoin="round"/>
<path fill-rule="evenodd" clip-rule="evenodd" d="M19.7821 16.3869L27.8944 21.2155C28.9205 21.8254 28.9205 23.3207 27.8944 23.9306L19.7821 28.7593C18.7372 29.3818 17.4165 28.6226 17.4165 27.4007V17.7455C17.4165 16.5236 18.7372 15.7643 19.7821 16.3869Z" fill="#060608"/>
</svg>
