<svg width="24" height="24" viewBox="0 0 24 24" fill="none" xmlns="http://www.w3.org/2000/svg">
<path fill-rule="evenodd" clip-rule="evenodd" d="M11.0016 17.8849C11.0016 18.1189 10.9086 18.3434 10.7431 18.5089C10.5776 18.6744 10.3532 18.7673 10.1191 18.7673C9.88506 18.7673 9.6606 18.6744 9.4951 18.5089C9.32961 18.3434 9.23663 18.1189 9.23663 17.8849H11.0016ZM11.1488 15.9434C11.3916 15.9434 11.59 16.1422 11.59 16.3847C11.59 16.6272 11.3916 16.8259 11.1488 16.8259H9.08979C8.84693 16.8259 8.64855 16.6272 8.64855 16.3847C8.64855 16.1422 8.84693 15.9434 9.08979 15.9434H11.1488ZM7.49887 7.49816C8.94612 6.0509 11.2924 6.0509 12.7397 7.49816C13.29 8.04842 13.6531 8.75795 13.7776 9.52615C13.9021 10.2944 13.7817 11.0822 13.4333 11.7782L11.8629 14.6984C11.8327 14.7545 11.7878 14.8014 11.7332 14.8341C11.6785 14.8668 11.616 14.8841 11.5522 14.8841H8.68632C8.62261 14.8841 8.56009 14.8668 8.5054 14.8341C8.45071 14.8014 8.40589 14.7545 8.37569 14.6984L6.80489 11.7782C6.45645 11.0822 6.33594 10.2942 6.46044 9.52596C6.58494 8.75769 6.94813 8.0481 7.49851 7.49781L7.49887 7.49816ZM3.41196 9.41313C3.59919 9.41313 3.77876 9.48751 3.91116 9.6199C4.04356 9.7523 4.11793 9.93187 4.11793 10.1191C4.11793 10.3063 4.04356 10.4859 3.91116 10.6183C3.77876 10.7507 3.59919 10.8251 3.41196 10.8251H2.70598C2.51874 10.8251 2.33917 10.7507 2.20678 10.6183C2.07438 10.4859 2 10.3063 2 10.1191C2 9.93187 2.07438 9.7523 2.20678 9.6199C2.33917 9.48751 2.51874 9.41313 2.70598 9.41313H3.41196ZM15.8598 4.37809C15.9921 4.51048 16.0665 4.69002 16.0665 4.87722C16.0665 5.06442 15.9921 5.24395 15.8598 5.37634L15.3606 5.87547C15.2952 5.94119 15.2174 5.9933 15.1318 6.0288C15.0461 6.0643 14.9542 6.08249 14.8615 6.08232C14.7219 6.08229 14.5854 6.04087 14.4694 5.96329C14.3533 5.88572 14.2628 5.77547 14.2094 5.64649C14.156 5.51751 14.142 5.37558 14.1692 5.23865C14.1965 5.10173 14.2637 4.97595 14.3624 4.87722L14.8615 4.37809C14.9939 4.24574 15.1734 4.17139 15.3606 4.17139C15.5478 4.17139 15.7274 4.24574 15.8598 4.37809ZM5.37669 4.37809L5.87582 4.87722C5.94325 4.94234 5.99703 5.02024 6.03403 5.10637C6.07103 5.1925 6.09051 5.28514 6.09132 5.37888C6.09214 5.47262 6.07427 5.56558 6.03878 5.65235C6.00328 5.73911 5.95086 5.81793 5.88457 5.88422C5.81829 5.95051 5.73946 6.00293 5.6527 6.03842C5.56594 6.07392 5.47298 6.09178 5.37924 6.09097C5.2855 6.09015 5.19286 6.07068 5.10673 6.03368C5.02059 5.99668 4.94269 5.9429 4.87757 5.87547L4.37844 5.37634C4.31101 5.31122 4.25723 5.23332 4.22023 5.14718C4.18323 5.06105 4.16376 4.96841 4.16294 4.87467C4.16213 4.78094 4.17999 4.68797 4.21549 4.60121C4.25098 4.51445 4.3034 4.43562 4.36969 4.36934C4.43598 4.30305 4.5148 4.25063 4.60156 4.21513C4.68832 4.17964 4.78129 4.16177 4.87503 4.16259C4.96877 4.1634 5.06141 4.18288 5.14754 4.21988C5.23367 4.25688 5.31157 4.31066 5.37669 4.37809ZM10.1191 2C10.3063 2 10.4859 2.07438 10.6183 2.20678C10.7507 2.33917 10.8251 2.51874 10.8251 2.70598V3.41196C10.8251 3.59919 10.7507 3.77876 10.6183 3.91116C10.4859 4.04356 10.3063 4.11794 10.1191 4.11794C9.93187 4.11794 9.7523 4.04356 9.6199 3.91116C9.48751 3.77876 9.41313 3.59919 9.41313 3.41196V2.70598C9.41313 2.51874 9.48751 2.33917 9.6199 2.20678C9.7523 2.07438 9.93187 2 10.1191 2Z" fill="white"/>
<path fill-rule="evenodd" clip-rule="evenodd" d="M18.0916 12.1755C18.08 12.1758 18.0685 12.1767 18.057 12.1784L15.9825 12.4579C15.9057 12.4684 15.836 12.5084 15.7883 12.5695L15.22 13.3033C15.1967 13.3332 15.1796 13.3674 15.1698 13.404C15.16 13.4405 15.1576 13.4787 15.1628 13.5162L15.3948 15.1879L13.687 15.4184C13.6102 15.4286 13.5405 15.4686 13.4929 15.5296C13.4816 15.5441 13.4766 15.5621 13.4681 15.5791C13.4766 15.5621 13.4816 15.5438 13.4929 15.5296L12.9245 16.2639C12.9013 16.2937 12.8843 16.328 12.8746 16.3645C12.8648 16.4011 12.8625 16.4392 12.8677 16.4767L13.1494 18.5082C13.1546 18.5459 13.1673 18.5821 13.1867 18.6149C13.2061 18.6476 13.2318 18.6761 13.2624 18.6988C13.3248 18.745 13.4029 18.7647 13.4798 18.7538L15.8455 18.4347L16.1667 20.7514C16.172 20.7891 16.1848 20.8253 16.2042 20.858C16.2237 20.8906 16.2495 20.9191 16.2801 20.9417C16.33 20.9786 16.3902 20.999 16.4523 20.9999H16.4626C16.4744 20.9998 16.4862 20.9988 16.4979 20.9971L18.5717 20.7172C18.6486 20.707 18.7184 20.6671 18.7662 20.606L19.3345 19.8718C19.3572 19.8423 19.374 19.8088 19.3839 19.7729C19.3943 19.7359 19.3969 19.697 19.3913 19.6589L19.1597 17.9872L20.8672 17.757C20.944 17.7468 21.0137 17.7067 21.0613 17.6455L21.6296 16.9112C21.6529 16.8814 21.67 16.8472 21.6798 16.8106C21.6897 16.7741 21.6922 16.7359 21.6871 16.6984L21.4048 14.6666C21.3996 14.629 21.3869 14.5928 21.3675 14.5602C21.3481 14.5276 21.3224 14.4992 21.2918 14.4767C21.2294 14.4303 21.1513 14.4103 21.0744 14.4209L18.7086 14.7404L18.3874 12.4237C18.3822 12.386 18.3696 12.3498 18.3502 12.3171C18.3308 12.2844 18.305 12.256 18.2744 12.2334C18.2248 12.1968 18.1649 12.1765 18.1032 12.1755H18.0912H18.0916Z" fill="#F09104"/>
<path fill-rule="evenodd" clip-rule="evenodd" d="M18.3534 17.8273L18.5969 18.0031L18.0561 18.6801L18.7685 19.1941L18.5839 19.4253L17.8712 18.9114L17.3304 19.5884L17.0868 19.413L17.628 18.7356L16.9153 18.2216L17.1002 17.9904L17.8126 18.5047L18.3534 17.8273ZM15.5662 15.6857L15.791 17.2467L14.1485 17.4602L13.9233 15.8993L15.5662 15.6857ZM15.3049 16.013L14.2679 16.1478L14.4098 17.133L15.4465 16.9982L15.3046 16.013H15.3049ZM19.9489 15.0373C20.4473 14.9723 20.9065 15.3038 20.9747 15.7775C21.0428 16.2505 20.6944 16.6872 20.1956 16.7521C19.6975 16.8171 19.2379 16.4856 19.1698 16.0123C19.1017 15.5385 19.4504 15.1022 19.9489 15.0373ZM20.6718 15.8167C20.6266 15.5025 20.3206 15.2819 19.9902 15.325C19.6598 15.368 19.4275 15.6586 19.4727 15.9727C19.5182 16.2869 19.8239 16.5075 20.1543 16.4641C20.4847 16.4214 20.717 16.1309 20.6718 15.8167ZM16.9795 12.8816L18.2453 14.398L16.2344 14.6596L16.9795 12.8816ZM17.0681 13.4552L16.7123 14.3045L17.6728 14.1795L17.0681 13.4552Z" fill="white"/>
</svg>
